<svg width="201" height="199" fill="none" xmlns="http://www.w3.org/2000/svg"><path d="M100.5 0l23.23 43.977 47.834-14.834L156.581 76.5 201 99.5l-44.419 22.999 14.983 47.358-47.834-14.834L100.5 199l-23.23-43.977-47.834 14.834 14.983-47.358L0 99.5l44.419-22.999-14.983-47.358L77.27 43.977 100.5 0z" fill="#B9C400"/><path d="M62.36 116.348c-1.757 0-3.323-.323-4.698-.969-1.367-.647-2.453-1.537-3.256-2.673-.804-1.135-1.223-2.436-1.256-3.902h5.22c.058.986.473 1.785 1.243 2.398.77.614 1.687.92 2.747.92.845 0 1.591-.186 2.237-.559a3.997 3.997 0 001.53-1.579c.372-.679.558-1.458.558-2.336 0-.895-.19-1.682-.571-2.362a4.043 4.043 0 00-1.554-1.591c-.663-.381-1.421-.576-2.275-.584a5.39 5.39 0 00-2.175.46c-.696.307-1.238.725-1.628 1.255l-4.785-.857 1.206-13.423h15.56v4.4H59.34l-.659 6.375h.15c.447-.629 1.122-1.151 2.025-1.566.903-.414 1.914-.621 3.033-.621 1.533 0 2.9.36 4.101 1.081a7.785 7.785 0 012.847 2.971c.696 1.251 1.04 2.693 1.031 4.325.008 1.715-.39 3.24-1.193 4.574-.795 1.326-1.91 2.37-3.343 3.132-1.425.754-3.083 1.131-4.972 1.131zm22.472-26.15c1.309 0 2.568.219 3.778.658a8.702 8.702 0 013.257 2.1c.96.962 1.719 2.238 2.274 3.829.563 1.582.85 3.525.858 5.829 0 2.163-.245 4.093-.734 5.792-.48 1.69-1.172 3.128-2.075 4.313-.903 1.185-1.993 2.088-3.27 2.709-1.275.613-2.7.92-4.275.92-1.698 0-3.198-.327-4.499-.982-1.3-.663-2.35-1.562-3.145-2.697a8.397 8.397 0 01-1.429-3.853h5.307c.207.928.642 1.649 1.305 2.163.663.505 1.484.758 2.461.758 1.657 0 2.917-.721 3.779-2.163.861-1.45 1.296-3.434 1.305-5.953h-.174a6.094 6.094 0 01-1.542 1.926 7.164 7.164 0 01-2.224 1.231 7.957 7.957 0 01-2.648.435c-1.5 0-2.838-.352-4.014-1.057a7.58 7.58 0 01-2.784-2.908c-.68-1.235-1.02-2.643-1.02-4.226-.008-1.707.386-3.227 1.181-4.561.796-1.335 1.906-2.379 3.331-3.132 1.434-.763 3.1-1.14 4.997-1.132zm.037 4.225c-.837 0-1.583.2-2.237.597a4.402 4.402 0 00-1.541 1.603c-.373.671-.556 1.421-.547 2.25 0 .837.182 1.591.547 2.262a4.366 4.366 0 001.516 1.591c.646.389 1.384.584 2.212.584a4.263 4.263 0 003.108-1.305c.397-.414.708-.891.932-1.429a4.43 4.43 0 00.335-1.716 4.577 4.577 0 00-.572-2.212 4.368 4.368 0 00-1.54-1.616c-.655-.406-1.393-.609-2.213-.609zm23.839 22.136c-2.138-.008-3.978-.534-5.519-1.578-1.533-1.044-2.713-2.556-3.542-4.537-.82-1.98-1.226-4.362-1.218-7.146 0-2.776.41-5.142 1.23-7.097.829-1.956 2.01-3.443 3.543-4.462 1.541-1.028 3.376-1.542 5.506-1.542 2.129 0 3.96.514 5.493 1.542 1.542 1.027 2.726 2.519 3.555 4.474.829 1.947 1.239 4.309 1.231 7.085 0 2.792-.415 5.178-1.243 7.159-.821 1.98-1.997 3.492-3.53 4.536-1.533 1.044-3.368 1.566-5.506 1.566zm0-4.462c1.458 0 2.622-.733 3.492-2.2.87-1.466 1.301-3.666 1.293-6.599 0-1.931-.199-3.538-.597-4.823-.389-1.284-.944-2.25-1.665-2.896a3.634 3.634 0 00-2.523-.97c-1.45 0-2.61.726-3.48 2.176-.87 1.45-1.31 3.621-1.318 6.513 0 1.955.195 3.587.584 4.897.398 1.301.957 2.278 1.678 2.933a3.678 3.678 0 002.536.969zm39.021-12.79l-1.231 2.723h-16.617l1.006-2.722h16.842zm-2.374 5.209L144 107.3h-14.119l1.006-2.784h14.468zm5.605-12.007l-1.989 4.25a16.786 16.786 0 00-1.205-.757 7.32 7.32 0 00-1.604-.709 6.258 6.258 0 00-1.988-.298c-1.152 0-2.155.29-3.008.87-.853.58-1.516 1.483-1.989 2.71-.464 1.226-.696 2.8-.696 4.723 0 1.939.232 3.517.696 4.735.473 1.21 1.136 2.101 1.989 2.672.853.564 1.856.845 3.008.845.729 0 1.392-.095 1.988-.285a7.654 7.654 0 001.567-.684c.455-.265.836-.51 1.143-.733l2.013 4.25a9.479 9.479 0 01-3.069 1.691 11.676 11.676 0 01-3.642.559c-2.171 0-4.093-.514-5.767-1.541-1.666-1.036-2.971-2.523-3.915-4.462-.945-1.947-1.417-4.296-1.417-7.047 0-2.743.472-5.092 1.417-7.048.944-1.955 2.249-3.45 3.915-4.487 1.674-1.044 3.596-1.566 5.767-1.566 1.334 0 2.568.2 3.704.597 1.135.398 2.162.97 3.082 1.715z" fill="#262C27"/></svg>